<?xml version="1.0" encoding="UTF-8"?>
<!-- Generator: Adobe Illustrator 16.0.0, SVG Export Plug-In . SVG Version: 6.00 Build 0)  -->
<svg xmlns="http://www.w3.org/2000/svg" xmlns:xlink="http://www.w3.org/1999/xlink" version="1.0" id="Layer_1" x="0px" y="0px" width="547.2px" height="180px" viewBox="0 0 547.2 180" xml:space="preserve">
<g>
	<defs>
		<rect id="SVGID_1_" x="-266.4" y="-450" width="1080" height="1080"></rect>
	</defs>
	<clipPath id="SVGID_2_">
		<use xlink:href="#SVGID_1_" overflow="visible"></use>
	</clipPath>
	<path clip-path="url(#SVGID_2_)" fill="#1D1D2C" d="M251.552,41.073h-23.189c-5.411,0-10.6,2.141-14.437,5.955L188.28,74.085V4.522   h-5.267c-10.775,0-19.509,8.735-19.509,19.509v115.462h4.628c11.128,0,20.148-9.021,20.148-20.148v-14.197l10.29-10.292   l26.544,37.923c3.082,4.22,7.992,6.715,13.217,6.715h19.32l-42.309-60.266L251.552,41.073z"></path>
	<path clip-path="url(#SVGID_2_)" fill="#1D1D2C" d="M269.259,4.523h-11.23v119.148c0,8.739,7.084,15.823,15.822,15.823h8.954   V18.069C282.805,10.588,276.743,4.523,269.259,4.523"></path>
	<path clip-path="url(#SVGID_2_)" fill="#1D1D2C" d="M307.576,4.294c-4.193,0-7.718,1.43-10.579,4.289   c-2.855,2.858-4.287,6.322-4.287,10.386c0,4.193,1.432,7.718,4.287,10.577c2.861,2.86,6.386,4.288,10.579,4.288   c4.064,0,7.527-1.428,10.386-4.288c2.858-2.859,4.289-6.384,4.289-10.577c0-4.064-1.431-7.528-4.289-10.386   C315.103,5.725,311.64,4.294,307.576,4.294"></path>
	<path clip-path="url(#SVGID_2_)" fill="#1D1D2C" d="M419.828,65.376c-4.45-7.559-10.422-13.531-17.917-17.915   c-7.498-4.385-15.691-6.577-24.583-6.577c-8.894,0-17.09,2.192-24.585,6.577c-7.5,4.384-13.436,10.356-17.82,17.915   c-4.382,7.561-6.574,15.787-6.574,24.678v85.763h7.712c9.528,0,17.253-7.725,17.253-17.253v-26.58   c6.733,4.83,14.738,7.241,24.015,7.241c8.892,0,17.085-2.193,24.583-6.575c7.495-4.384,13.467-10.354,17.917-17.915   c4.446-7.557,6.668-15.785,6.668-24.681C426.496,81.164,424.274,72.938,419.828,65.376 M394.861,107.874   c-4.573,4.765-10.356,7.147-17.342,7.147c-6.991,0-12.835-2.383-17.533-7.147c-4.703-4.764-7.052-10.701-7.052-17.819   c0-7.113,2.349-13.053,7.052-17.817c4.698-4.767,10.542-7.148,17.533-7.148c6.985,0,12.769,2.381,17.342,7.148   c4.573,4.764,6.861,10.704,6.861,17.817C401.722,97.173,399.434,103.11,394.861,107.874"></path>
	<path clip-path="url(#SVGID_2_)" fill="#1D1D2C" d="M311.267,41.073h-15.7c-3.894,0-7.052,3.157-7.052,7.052V61.14h6.672v78.354   h11.27c7.459,0,13.506-6.047,13.506-13.506V41.073h-6.197H311.267z"></path>
	<path clip-path="url(#SVGID_2_)" fill="#00E600" d="M88.006,68.442c-9.9-7.194-23.974-8.832-34.544-0.202   c0,0,7.832,3.506,14.144,12.738c6.313,9.233,7.767,16.951,7.767,22.18v11.625h-4.866c-23.323,0-42.229-18.906-42.229-42.228V29.044   h43.589c23.279,0,42.15,18.871,42.15,42.15v43.589v5.138c0,10.811,8.763,19.573,19.573,19.573h5.138v-68.3   c0-36.926-29.935-66.86-66.861-66.86H3.57v68.223c0,36.968,29.969,66.937,66.937,66.937h29.576v-16.383v-8.328V99.737   c0-2.099-0.39-7.005-0.39-7.005S98.517,76.082,88.006,68.442"></path>
	<path clip-path="url(#SVGID_2_)" fill="#00E600" d="M449.013,4.522c-4.193,0-7.718,1.43-10.579,4.289   c-2.855,2.858-4.287,6.322-4.287,10.386c0,4.193,1.432,7.718,4.287,10.576c2.861,2.861,6.386,4.289,10.579,4.289   c4.063,0,7.527-1.428,10.386-4.289c2.858-2.858,4.289-6.383,4.289-10.576c0-4.064-1.431-7.528-4.289-10.386   C456.541,5.952,453.077,4.522,449.013,4.522"></path>
	<path clip-path="url(#SVGID_2_)" fill="#00E600" d="M452.705,41.073h-15.7c-3.894,0-7.051,3.157-7.051,7.052V61.14h6.671v78.354   h11.27c7.459,0,13.506-6.047,13.506-13.506V41.073h-6.197H452.705z"></path>
	<path clip-path="url(#SVGID_2_)" fill="#00E600" d="M543.63,132.938c-5.88,4.371-14.697,6.556-23.515,6.556   c-22.927,0-36.056-11.291-36.056-32.78V59.911h-8.244c-4.971,0-9-4.029-9-9V41.7h17.244V4.183h10.994c7.456,0,13.5,6.044,13.5,13.5   V41.7h14.521c7.456,0,13.5,6.044,13.5,13.5v4.711h-28.021v46.256c0,9.471,5.095,14.57,14.501,14.57c1.423,0,2.83-0.1,4.201-0.302   c6.121-0.906,12.088,2.375,14.499,8.072L543.63,132.938z"></path>
</g>
</svg>
